<svg xmlns="http://www.w3.org/2000/svg" viewBox="0 0 539.27 87.48"><defs><style>.a{fill:#222;}.b{fill:#6096ec;}</style></defs><title>bind_systems_logo</title><path class="a" d="M30.2,66.4h8.1V91.06a18.32,18.32,0,0,1,13.5-5.94c10.8,0,20.61,8.82,20.61,24,0,14.94-10.53,24.93-21.15,24.93a21.18,21.18,0,0,1-13.5-4.95V133H30.2ZM50,92.14a15.18,15.18,0,0,0-11.7,6.12v25a17.68,17.68,0,0,0,10.8,3.6c8.73,0,15-6.93,15-17.46C64.13,98.62,57.74,92.14,50,92.14Z" transform="translate(-30.2 -66.4)"/><path class="a" d="M82,72.52a5.29,5.29,0,0,1,5.67-5.67,5.7,5.7,0,0,1,5.67,5.67,5.29,5.29,0,0,1-5.67,5.67A5.7,5.7,0,0,1,82,72.52ZM91.76,133h-8.1V86.2h8.1Z" transform="translate(-30.2 -66.4)"/><path class="a" d="M114,94c3.33-5,8.55-8.91,15.75-8.91,10.53,0,15.75,6.93,15.75,17.37V133h-8.1V103.39c0-6.75-3.33-11.16-9-11.16s-10.71,4.5-14.13,9.81v31h-8.1V86.2H114Z" transform="translate(-30.2 -66.4)"/><path class="a" d="M156.29,109.87c0-14.22,9.45-24.75,20.79-24.75a18.66,18.66,0,0,1,13.32,5.76V66.4h8.1v55.26c0,4.59,2.7,5.49,5.31,5.49l-1.71,6.3c-5.76,0-9.18-2.34-10.44-6.84a17.2,17.2,0,0,1-14.49,7.47C165.56,134.08,156.29,124.63,156.29,109.87Zm34.11,11.34V98a15.33,15.33,0,0,0-11.52-5.85c-8.73,0-14.31,7.65-14.31,17.46,0,10,6.21,17.28,14.4,17.28A15.35,15.35,0,0,0,190.4,121.21Z" transform="translate(-30.2 -66.4)"/><path class="b" d="M220.91,122a6.21,6.21,0,0,1,6,6,5.76,5.76,0,0,1-6,6,6.15,6.15,0,0,1-6-6C214.88,124.36,217.13,122,220.91,122Z" transform="translate(-30.2 -66.4)"/><path class="a" d="M241,122.47c3.06,2.7,8.1,4.59,13.5,4.59,6.66,0,10.17-2.43,10.17-5.94,0-3.69-2.16-5.94-11.7-9.18-8.82-3-13.14-6.66-13.14-14s6.66-12.87,17.82-12.87a30.53,30.53,0,0,1,14.31,3.33l-2.25,6.66a24.36,24.36,0,0,0-12.42-3.24c-6.21,0-9.54,3.06-9.54,6s2,4.59,9.27,7c11.88,4,15.93,8.37,15.93,15.57,0,8.37-7.38,13.59-18.72,13.59-7.11,0-13-2-16.65-4.86Z" transform="translate(-30.2 -66.4)"/><path class="a" d="M277,152.08l1.8-6.75a12.93,12.93,0,0,0,6.3,1.53c5,0,8.82-2.52,12.42-12l2.07-5.4h-4.32L277,88.36l7.2-3.24,17.46,39,13.59-38.61,7.47,2.88-17.19,47c-5.31,14.4-11.61,18.54-20.61,18.54A15.29,15.29,0,0,1,277,152.08Z" transform="translate(-30.2 -66.4)"/><path class="a" d="M330.17,122.47c3.06,2.7,8.1,4.59,13.5,4.59,6.66,0,10.17-2.43,10.17-5.94,0-3.69-2.16-5.94-11.7-9.18-8.82-3-13.14-6.66-13.14-14s6.66-12.87,17.82-12.87a30.53,30.53,0,0,1,14.31,3.33l-2.25,6.66a24.35,24.35,0,0,0-12.42-3.24c-6.21,0-9.54,3.06-9.54,6s2,4.59,9.27,7c11.88,4,15.93,8.37,15.93,15.57,0,8.37-7.38,13.59-18.72,13.59-7.11,0-13-2-16.65-4.86Z" transform="translate(-30.2 -66.4)"/><path class="a" d="M376.6,73.15h6.21V87.91h13v7h-13v22.59c0,7,3.33,9.36,7.47,9.36a16.1,16.1,0,0,0,8-2.43l2.25,6.48a23.82,23.82,0,0,1-11.25,3.15c-9,0-14.58-6.12-14.58-17.19v-22h-8.1v-7h8.28Z" transform="translate(-30.2 -66.4)"/><path class="a" d="M412,112.93c1.08,8.73,6.3,14,14.58,14a31.1,31.1,0,0,0,13.5-3.06l1.89,6.93a38.86,38.86,0,0,1-16.38,3.33c-13.41,0-21.87-9-21.87-24.48,0-14,8.55-24.48,21.15-24.48,13.41,0,20.16,9.81,20.16,21.69,0,2.16-.09,4.14-.27,6.12Zm-.09-6.57h25.65c0-9.09-4.86-14.22-12.87-14.22C417.64,92.14,412.78,97.09,411.88,106.36Z" transform="translate(-30.2 -66.4)"/><path class="a" d="M463.63,94c3.33-5,8.55-8.91,15.21-8.91C486.22,85.12,491,89,493,95c3.69-5.49,8.55-9.9,16.11-9.9,10.17,0,15.12,7.11,15.12,17.37V133h-8.1V103.12c0-6.48-3.24-10.89-8.46-10.89-5.4,0-10.17,4.68-13.59,10.08V133H486V103.12c0-6.48-3.24-10.89-8.46-10.89s-10.17,4.5-13.59,9.81v31h-8.1V86.2h7.83Z" transform="translate(-30.2 -66.4)"/><path class="a" d="M537.52,122.47c3.06,2.7,8.1,4.59,13.5,4.59,6.66,0,10.17-2.43,10.17-5.94,0-3.69-2.16-5.94-11.7-9.18-8.82-3-13.14-6.66-13.14-14S543,85.12,554.17,85.12a30.53,30.53,0,0,1,14.31,3.33l-2.25,6.66a24.35,24.35,0,0,0-12.42-3.24c-6.21,0-9.54,3.06-9.54,6s2,4.59,9.27,7c11.88,4,15.93,8.37,15.93,15.57,0,8.37-7.38,13.59-18.72,13.59-7.11,0-13-2-16.65-4.86Z" transform="translate(-30.2 -66.4)"/></svg>