<svg xmlns="http://www.w3.org/2000/svg" viewBox="0 0 196.74 67.68"><defs><style>.a{fill:#222;}.b{fill:#6096ec;}</style></defs><title>bind_dot_logo</title><path class="a" d="M30.2,66.4h8.1V91.06a18.32,18.32,0,0,1,13.5-5.94c10.8,0,20.61,8.82,20.61,24,0,14.94-10.53,24.93-21.15,24.93a21.18,21.18,0,0,1-13.5-4.95V133H30.2ZM50,92.14a15.18,15.18,0,0,0-11.7,6.12v25a17.68,17.68,0,0,0,10.8,3.6c8.73,0,15-6.93,15-17.46C64.13,98.62,57.74,92.14,50,92.14Z" transform="translate(-30.2 -66.4)"/><path class="a" d="M82,72.52a5.29,5.29,0,0,1,5.67-5.67,5.7,5.7,0,0,1,5.67,5.67,5.29,5.29,0,0,1-5.67,5.67A5.7,5.7,0,0,1,82,72.52ZM91.76,133h-8.1V86.2h8.1Z" transform="translate(-30.2 -66.4)"/><path class="a" d="M114,94c3.33-5,8.55-8.91,15.75-8.91,10.53,0,15.75,6.93,15.75,17.37V133h-8.1V103.39c0-6.75-3.33-11.16-9-11.16s-10.71,4.5-14.13,9.81v31h-8.1V86.2H114Z" transform="translate(-30.2 -66.4)"/><path class="a" d="M156.29,109.87c0-14.22,9.45-24.75,20.79-24.75a18.66,18.66,0,0,1,13.32,5.76V66.4h8.1v55.26c0,4.59,2.7,5.49,5.31,5.49l-1.71,6.3c-5.76,0-9.18-2.34-10.44-6.84a17.2,17.2,0,0,1-14.49,7.47C165.56,134.08,156.29,124.63,156.29,109.87Zm34.11,11.34V98a15.33,15.33,0,0,0-11.52-5.85c-8.73,0-14.31,7.65-14.31,17.46,0,10,6.21,17.28,14.4,17.28A15.35,15.35,0,0,0,190.4,121.21Z" transform="translate(-30.2 -66.4)"/><path class="b" d="M220.91,122a6.21,6.21,0,0,1,6,6,5.76,5.76,0,0,1-6,6,6.15,6.15,0,0,1-6-6C214.88,124.36,217.13,122,220.91,122Z" transform="translate(-30.2 -66.4)"/></svg>