<?xml version="1.0" encoding="iso-8859-1"?>
<!-- Generator: Adobe Illustrator 16.0.0, SVG Export Plug-In . SVG Version: 6.00 Build 0)  -->
<!DOCTYPE svg PUBLIC "-//W3C//DTD SVG 1.1//EN" "http://www.w3.org/Graphics/SVG/1.1/DTD/svg11.dtd">
<svg version="1.1" id="Layer_1" xmlns="http://www.w3.org/2000/svg" xmlns:xlink="http://www.w3.org/1999/xlink" x="0px" y="0px"
	 width="32px" height="32px" viewBox="0 0 32 32" style="enable-background:new 0 0 32 32;" xml:space="preserve">
<g id="Elipse_82_">
	<g>
		<path style="fill-rule:evenodd;clip-rule:evenodd;fill:#CCCCCC;" d="M16,0C7.163,0,0,7.163,0,15.999C0,24.836,7.163,32,16,32
			c8.836,0,16-7.164,16-16.001C32,7.163,24.836,0,16,0z M16,30C8.268,30,2,23.731,2,15.999C2,8.268,8.268,2,16,2
			c7.731,0,14,6.268,14,13.999C30,23.731,23.731,30,16,30z"/>
	</g>
</g>
<g id="Arrow_9_">
	<g>
		<path style="fill-rule:evenodd;clip-rule:evenodd;fill:#ED7161;" d="M22,8.999h-3c-0.553,0-1,0.448-1,1c0,0.553,0.447,1,1,1h0.525
			l-2.206,2.233c-0.405,0.408-0.405,1.07,0,1.478c0.404,0.408,1.061,0.408,1.466,0L21,12.468v0.531C21,13.552,21.447,14,22,14
			c0.552,0,1-0.448,1-1.001v-3C23,9.447,22.552,8.999,22,8.999z M13.237,17.318l-2.227,2.23v-0.528c0-0.55-0.45-0.995-1.006-0.995
			C9.45,18.025,9,18.471,9,19.021v2.984C9,22.554,9.45,23,10.005,23h3.016c0.556,0,1.006-0.446,1.006-0.995
			c0-0.55-0.45-0.994-1.006-0.994h-0.528l2.218-2.222c0.407-0.406,0.407-1.065,0.001-1.471
			C14.304,16.913,13.645,16.913,13.237,17.318z M21.994,18c-0.549,0-0.992,0.447-0.992,1v0.525l-2.217-2.206
			c-0.405-0.405-1.063-0.405-1.467-0.001c-0.405,0.405-0.405,1.062,0,1.466l2.226,2.215h-0.525c-0.548,0-0.993,0.448-0.993,1.001
			c0,0.552,0.445,1,0.993,1h2.976c0.548,0,0.992-0.448,0.992-1v-3C22.986,18.447,22.542,18,21.994,18z M12.474,11.01h0.528
			c0.551,0,0.998-0.45,0.998-1.005S13.553,9,13.002,9h-2.991C9.46,9,9.014,9.45,9.014,10.005v3.016c0,0.555,0.446,1.005,0.997,1.005
			c0.552,0,0.998-0.45,0.998-1.005v-0.527l2.228,2.217c0.408,0.407,1.068,0.407,1.475,0c0.407-0.407,0.407-1.066,0-1.474
			L12.474,11.01z"/>
	</g>
</g>
<g>
</g>
<g>
</g>
<g>
</g>
<g>
</g>
<g>
</g>
<g>
</g>
<g>
</g>
<g>
</g>
<g>
</g>
<g>
</g>
<g>
</g>
<g>
</g>
<g>
</g>
<g>
</g>
<g>
</g>
</svg>
