<?xml version="1.0" encoding="iso-8859-1"?>
<!-- Generator: Adobe Illustrator 16.0.0, SVG Export Plug-In . SVG Version: 6.00 Build 0)  -->
<!DOCTYPE svg PUBLIC "-//W3C//DTD SVG 1.1//EN" "http://www.w3.org/Graphics/SVG/1.1/DTD/svg11.dtd">
<svg version="1.1" id="Layer_1" xmlns="http://www.w3.org/2000/svg" xmlns:xlink="http://www.w3.org/1999/xlink" x="0px" y="0px"
	 width="32.001px" height="31.998px" viewBox="0 0 32.001 31.998" style="enable-background:new 0 0 32.001 31.998;"
	 xml:space="preserve">
<g id="Github_Logo">
	<g>
		<path style="fill:#333333;" d="M16.001,0C7.164,0,0,7.164,0,15.999c0,8.836,7.164,15.999,16.001,15.999
			c8.836,0,16-7.163,16-15.999C32.001,7.164,24.837,0,16.001,0z M20.483,28.188c-0.092-1.252-0.195-2.803-0.201-3.431
			c-0.041-0.481-0.092-1.707-1.256-2.49c4.622-0.387,6.821-2.941,6.978-6.316c0.132-1.922-0.632-3.611-1.989-4.975
			c0.069-1.459-0.044-3.188-0.138-3.948c-1.042-0.3-3.472,0.983-4.152,1.531c-1.432-0.556-4.937-0.75-7.067,0
			c-1.51-1.061-3.23-1.717-4.167-1.534c-0.865,1.916-0.309,3.729-0.14,3.945c-1.114,1.018-2.668,2.271-2.246,4.895
			c0.677,3.849,3.385,5.925,7.746,6.433c-0.93,0.189-1.087,0.884-1.165,1.184c-2.929,1.208-3.765-0.746-4.136-1.254
			c-1.229-1.521-2.332-1.081-2.4-1.056c-0.066,0.024-0.116,0.12-0.109,0.166c0.062,0.327,0.731,0.661,0.764,0.688
			c0.907,0.676,1.243,1.897,1.45,2.244c1.301,2.139,4.326,1.252,4.354,1.27c0.002,0.187-0.021,1.761-0.039,2.986
			C7.058,27.02,3,21.99,3,15.999C3,8.82,8.821,3,16.001,3s13,5.82,13,12.999C29.001,21.602,25.452,26.361,20.483,28.188z"/>
	</g>
</g>
<g>
</g>
<g>
</g>
<g>
</g>
<g>
</g>
<g>
</g>
<g>
</g>
<g>
</g>
<g>
</g>
<g>
</g>
<g>
</g>
<g>
</g>
<g>
</g>
<g>
</g>
<g>
</g>
<g>
</g>
</svg>
