<?xml version="1.0" encoding="utf-8"?>
<!-- Generator: Adobe Illustrator 21.1.0, SVG Export Plug-In . SVG Version: 6.00 Build 0)  -->
<svg version="1.1" id="Ebene_1" xmlns="http://www.w3.org/2000/svg" xmlns:xlink="http://www.w3.org/1999/xlink" x="0px" y="0px"
	 viewBox="0 0 816 1456" style="enable-background:new 0 0 816 1456;" xml:space="preserve">
<style type="text/css">
	.st0{fill:#FFFFFF;}
</style>
<circle class="st0" cx="355.5" cy="256.5" r="0.5"/>
<circle class="st0" cx="405.5" cy="320.5" r="0.5"/>
<circle class="st0" cx="406.5" cy="366.5" r="0.5"/>
<circle class="st0" cx="368.5" cy="355.5" r="0.5"/>
<circle class="st0" cx="298.5" cy="285.5" r="0.5"/>
<circle class="st0" cx="337.5" cy="175.5" r="0.5"/>
<circle class="st0" cx="263.5" cy="58.5" r="0.5"/>
<circle class="st0" cx="132.5" cy="70.5" r="0.5"/>
<circle class="st0" cx="81.5" cy="249.5" r="0.5"/>
<circle class="st0" cx="119.5" cy="170.5" r="0.5"/>
<circle class="st0" cx="67.5" cy="129.5" r="0.5"/>
<circle class="st0" cx="45.5" cy="95.5" r="0.5"/>
<circle class="st0" cx="29.5" cy="211.5" r="0.5"/>
<circle class="st0" cx="601.5" cy="452.5" r="0.5"/>
<circle class="st0" cx="593.5" cy="642.5" r="0.5"/>
<circle class="st0" cx="479.5" cy="709.5" r="0.5"/>
<circle class="st0" cx="317.5" cy="655.5" r="0.5"/>
<circle class="st0" cx="385.5" cy="469.5" r="0.5"/>
<circle class="st0" cx="320.5" cy="355.5" r="0.5"/>
<circle class="st0" cx="321.5" cy="96.5" r="0.5"/>
<circle class="st0" cx="491.5" cy="97.5" r="0.5"/>
<circle class="st0" cx="417.5" cy="139.5" r="0.5"/>
<circle class="st0" cx="440.5" cy="226.5" r="0.5"/>
<circle class="st0" cx="485.5" cy="147.5" r="0.5"/>
<circle class="st0" cx="545.5" cy="153.5" r="0.5"/>
<circle class="st0" cx="155.5" cy="101.5" r="0.5"/>
<circle class="st0" cx="188.5" cy="48.5" r="0.5"/>
<circle class="st0" cx="159.5" cy="9.5" r="0.5"/>
<circle class="st0" cx="113.5" cy="27.5" r="0.5"/>
<circle class="st0" cx="84.5" cy="75.5" r="0.5"/>
<circle class="st0" cx="149.5" cy="188.5" r="0.5"/>
<circle class="st0" cx="217.5" cy="250.5" r="0.5"/>
<circle class="st0" cx="255.5" cy="274.5" r="0.5"/>
<circle class="st0" cx="266.5" cy="327.5" r="0.5"/>
<circle class="st0" cx="267.5" cy="365.5" r="0.5"/>
<circle class="st0" cx="233.5" cy="408.5" r="0.5"/>
<circle class="st0" cx="239.5" cy="482.5" r="0.5"/>
<circle class="st0" cx="224.5" cy="527.5" r="0.5"/>
<circle class="st0" cx="197.5" cy="546.5" r="0.5"/>
<circle class="st0" cx="367.5" cy="692.5" r="0.5"/>
<circle class="st0" cx="367.5" cy="746.5" r="0.5"/>
<circle class="st0" cx="367.5" cy="794.5" r="0.5"/>
<circle class="st0" cx="422.5" cy="626.5" r="0.5"/>
<circle class="st0" cx="466.5" cy="495.5" r="0.5"/>
<circle class="st0" cx="527.5" cy="433.5" r="0.5"/>
<circle class="st0" cx="504.5" cy="355.5" r="0.5"/>
<circle class="st0" cx="501.5" cy="286.5" r="0.5"/>
<circle class="st0" cx="586.5" cy="181.5" r="0.5"/>
<circle class="st0" cx="392.5" cy="187.5" r="0.5"/>
<circle class="st0" cx="443.5" cy="160.5" r="0.5"/>
<circle class="st0" cx="403.5" cy="82.5" r="0.5"/>
<circle class="st0" cx="368.5" cy="49.5" r="0.5"/>
<circle class="st0" cx="341.5" cy="119.5" r="0.5"/>
<circle class="st0" cx="311.5" cy="226.5" r="0.5"/>
<circle class="st0" cx="344.5" cy="286.5" r="0.5"/>
<circle class="st0" cx="341.5" cy="447.5" r="0.5"/>
<circle class="st0" cx="286.5" cy="407.5" r="0.5"/>
<circle class="st0" cx="314.5" cy="529.5" r="0.5"/>
<circle class="st0" cx="301.5" cy="575.5" r="0.5"/>
<circle class="st0" cx="234.5" cy="594.5" r="0.5"/>
<circle class="st0" cx="302.5" cy="751.5" r="0.5"/>
<circle class="st0" cx="329.5" cy="796.5" r="0.5"/>
<circle class="st0" cx="500.5" cy="785.5" r="0.5"/>
<circle class="st0" cx="641.5" cy="458.5" r="0.5"/>
<circle class="st0" cx="660.5" cy="353.5" r="0.5"/>
<circle class="st0" cx="677.5" cy="285.5" r="0.5"/>
<circle class="st0" cx="571.5" cy="301.5" r="0.5"/>
<circle class="st0" cx="423.5" cy="277.5" r="0.5"/>
<circle class="st0" cx="211.5" cy="104.5" r="0.5"/>
<circle class="st0" cx="101.5" cy="122.5" r="0.5"/>
<circle class="st0" cx="101.5" cy="211.5" r="0.5"/>
<circle class="st0" cx="157.5" cy="231.5" r="0.5"/>
<circle class="st0" cx="207.5" cy="292.5" r="0.5"/>
<circle class="st0" cx="435.5" cy="81.5" r="0.5"/>
<circle class="st0" cx="467.5" cy="30.5" r="0.5"/>
<circle class="st0" cx="374.5" cy="13.5" r="0.5"/>
<circle class="st0" cx="263.5" cy="7.5" r="0.5"/>
<circle class="st0" cx="267.5" cy="96.5" r="0.5"/>
<circle class="st0" cx="492.5" cy="26.5" r="0.5"/>
<circle class="st0" cx="501.5" cy="116.5" r="0.5"/>
<circle class="st0" cx="397.5" cy="234.5" r="0.5"/>
<g>
</g>
<g>
</g>
<g>
</g>
<g>
</g>
<g>
</g>
<g>
</g>
<g>
</g>
<g>
</g>
<g>
</g>
<g>
</g>
<g>
</g>
<g>
</g>
<g>
</g>
<g>
</g>
<g>
</g>
</svg>
